<?xml version="1.0" standalone="no"?><!DOCTYPE svg PUBLIC "-//W3C//DTD SVG 1.1//EN" "http://www.w3.org/Graphics/SVG/1.1/DTD/svg11.dtd"><svg class="icon" width="200px" height="200.00px" viewBox="0 0 1024 1024" version="1.1" xmlns="http://www.w3.org/2000/svg"><path d="M874.644 213.354H149.354l85.31 810.63h554.672z" fill="#E6E9ED" /><path d="M818.522 746.65l26.936-255.992H178.542l26.936 255.992z" fill="#DA4453" /><path d="M767.992 0.016H256.008L192.01 106.668h639.98z" fill="#7F4545" /><path d="M853.332 64.014H170.666L149.354 170.666h725.29z" fill="#965353" /><path d="M106.668 128.012h810.664v127.996H106.668z" fill="#A85D5D" /><path d="M725.336 618.654c0 117.84-95.496 213.336-213.336 213.336s-213.338-95.496-213.338-213.336c0-117.81 95.498-213.306 213.338-213.306s213.336 95.496 213.336 213.306z" fill="#ED5564" /><path d="M618.652 618.654c0 70.714-47.748 127.996-106.652 127.996s-106.654-57.282-106.654-127.996c0-70.686 47.75-127.998 106.654-127.998s106.652 57.312 106.652 127.998z" fill="#965353" /><path d="M512 490.658c-10.5 0-20.624 1.844-30.218 5.218-3.5 9.842-7.188 21.656-9.844 34.28-12.904 61.216 7.782 91.28 27.438 105.684 28.156 20.688 7.282 83.404-4.5 109.186a91.46 91.46 0 0 0 17.124 1.624c10.5 0 20.624-1.812 30.218-5.218 3.5-9.812 7.188-21.624 9.844-34.282 12.904-61.186-7.782-91.246-27.406-105.684-28.156-20.656-7.312-83.374 4.468-109.154a91.436 91.436 0 0 0-17.124-1.654z" fill="#7F4545" /><path d="M454.252 79.108a21.294 21.294 0 0 0 15.092 6.25h85.312c5.466 0 10.936-2.094 15.092-6.25a21.35 21.35 0 0 0 6.25-15.094h-127.996c0 5.468 2.094 10.906 6.25 15.094z" fill="#434A54" /></svg>