<?xml version="1.0" standalone="no"?><!DOCTYPE svg PUBLIC "-//W3C//DTD SVG 1.1//EN" "http://www.w3.org/Graphics/SVG/1.1/DTD/svg11.dtd"><svg class="icon" width="200px" height="197.87px" viewBox="0 0 1035 1024" version="1.1" xmlns="http://www.w3.org/2000/svg"><path d="M735.041015 512.86723c0 119.514711-96.874299 216.398741-216.399957 216.398741-119.501332 0-216.398741-96.88403-216.398741-216.398741s96.897409-216.398741 216.398741-216.398741C638.165499 296.468489 735.041015 393.352519 735.041015 512.86723z" fill="#96BF23" /><path d="M518.639841 931.173583c-230.661203 0-418.306354-187.647583-418.306354-418.306354 0-230.661203 187.645151-418.30757 418.306354-418.30757 12.487864 0 22.606355 10.119707 22.606355 22.606355L541.246196 490.258442l193.794819 0c12.484215 0 22.605138 10.120923 22.605138 22.605138 0 12.487864-10.119707 22.607571-22.605138 22.607571L518.639841 535.471152c-12.485432 0-22.605138-10.119707-22.605138-22.607571L496.034703 140.460801c-195.228849 11.725237-350.488506 174.277894-350.488506 372.406428 0 205.724396 167.370464 373.09486 373.09486 373.09486 205.724396 0 373.092428-167.370464 373.092428-373.09486 0-145.356453-85.37408-278.49263-217.5068-339.210871-11.33845-5.204594-16.314378-18.631451-11.097621-29.98328 5.216758-11.35183 18.609557-16.326541 29.98328-11.097621 148.122344 68.059894 243.835066 217.329219 243.835066 380.291772C936.946195 743.526 749.301044 931.173583 518.639841 931.173583z" fill="#097262" /></svg>